<?xml version="1.0" encoding="utf-8"?>
<!-- Generator: Adobe Illustrator 19.0.0, SVG Export Plug-In . SVG Version: 6.00 Build 0)  -->
<svg version="1.1" id="Layer_1" xmlns="http://www.w3.org/2000/svg" xmlns:xlink="http://www.w3.org/1999/xlink" x="0px" y="0px"
	 viewBox="-277 372 56 50" style="enable-background:new -277 372 56 50;" xml:space="preserve">
<style type="text/css">
	.st0{fill:#3E243C;}
	.st1{fill:#FFFFFF;}
</style>
<g>
	<path class="st0" d="M-247,406c-0.6,0-1,0.4-1,1s0.4,1,1,1s1-0.4,1-1S-246.4,406-247,406z"/>
	<path class="st0" d="M-257,406c-0.6,0-1,0.4-1,1s0.4,1,1,1s1-0.4,1-1S-256.4,406-257,406z"/>
	<path class="st0" d="M-249,374c-12.7,0-23,10.3-23,23s10.3,23,23,23c12.7,0,23-10.3,23-23S-236.3,374-249,374z"/>
	<path class="st0" d="M-277,372v50h56v-50H-277z M-249,422c-13.8,0-25-11.2-25-25s11.2-25,25-25c13.8,0,25,11.2,25,25
		S-235.2,422-249,422z"/>

<path class="st1" d="M-263.2,406.5c1.1,0,2-0.9,2-2c0-0.2,0-0.5-0.1-0.7l9.9-9.9c0.4,0.3,0.8,0.5,1.3,0.5c0.4,0,0.7-0.1,1-0.3
				l2.3,2.3c-0.2,0.3-0.3,0.6-0.3,1c0,1.1,0.9,2,2,2c1.1,0,2-0.9,2-2c0-0.4-0.1-0.7-0.3-1l5.3-5.3c0.3,0.2,0.6,0.3,1,0.3
				c1.1,0,2-0.9,2-2c0-1.1-0.9-2-2-2c-1.1,0-2,0.9-2,2c0,0.4,0.1,0.7,0.3,1l-5.3,5.3c-0.3-0.2-0.6-0.3-1-0.3c-0.4,0-0.7,0.1-1,0.3
				l-2.3-2.3c0.2-0.3,0.3-0.6,0.3-1c0-1.1-0.9-2-2-2c-1.1,0-2,0.9-2,2c0,0.2,0,0.5,0.1,0.7l-9.9,9.9c-0.4-0.3-0.8-0.5-1.3-0.5
				c-1.1,0-2,0.9-2,2S-264.3,406.5-263.2,406.5z M-237,388.4c0.6,0,1,0.5,1,1c0,0.6-0.5,1-1,1c-0.3,0-0.5-0.1-0.7-0.3c0,0,0,0,0,0
				c0,0,0,0,0,0c-0.2-0.2-0.3-0.4-0.3-0.7C-238,388.9-237.6,388.4-237,388.4z M-245.1,396.5c0.6,0,1,0.5,1,1c0,0.6-0.5,1-1,1
				c-0.6,0-1-0.5-1-1C-246.1,396.9-245.6,396.5-245.1,396.5z M-250.1,391.4c0.6,0,1,0.5,1,1c0,0.6-0.5,1-1,1c-0.6,0-1-0.5-1-1
				S-250.7,391.4-250.1,391.4z M-263.2,403.5c0.6,0,1,0.5,1,1c0,0.6-0.5,1-1,1c-0.6,0-1-0.5-1-1C-264.2,404-263.8,403.5-263.2,403.5
				z"/>
		
	
</g>
</svg>
